<svg width="424" height="404" viewBox="0 0 424 404" fill="none" xmlns="http://www.w3.org/2000/svg">
<rect width="424" height="404" fill="#D6EBA1"/>
<g clip-path="url(#clip0_1018_168)">
<path fill-rule="evenodd" clip-rule="evenodd" d="M212.102 328.731C288.448 328.731 350.34 272.585 350.34 203.325C350.34 178.9 342.642 156.106 329.328 136.83C347.265 158.822 357.87 186.033 357.87 215.491C357.87 288.607 292.533 347.88 211.935 347.88C131.337 347.88 66 288.607 66 215.491C66 184.849 77.475 156.639 96.7392 134.204C82.2822 154.021 73.8639 177.781 73.8639 203.325C73.8639 272.585 135.755 328.731 212.102 328.731Z" fill="url(#paint0_linear_1018_168)"/>
<path d="M203.986 258.807C209.422 282.938 202.174 312.665 202.174 312.665C202.174 312.665 155.543 311.845 131.1 296.403C111.101 283.768 101.598 268.866 96.0664 248.665C88.2141 219.987 100.093 169.976 100.093 169.976C100.093 169.976 113.181 187.462 127.274 195.506C143.282 204.642 159.641 208.322 174.389 218.938C190.83 230.773 199.886 240.605 203.986 258.807Z" fill="url(#paint1_linear_1018_168)"/>
<path d="M141.406 232.123L129.799 217.3C129.014 216.296 129.298 214.937 130.436 214.266C131.575 213.593 133.135 213.86 133.926 214.863L151.941 237.704C151.941 237.704 154.054 240.758 153.892 242.88C153.733 244.971 151.053 247.842 151.053 247.842L202.904 310.305L203.249 312.535L202.111 314.303L195.98 317.924L193.861 318.081L191.791 316.869L143.963 252.029C143.963 252.029 139.846 253.203 137.51 252.555C135.177 251.909 132.685 249.077 132.685 249.077L114.659 226.056C113.928 225.123 114.193 223.859 115.251 223.234C116.309 222.609 117.76 222.859 118.491 223.793L130.197 238.743L133.646 236.706L122.073 221.925C121.268 220.898 121.56 219.508 122.724 218.82C123.888 218.133 125.484 218.408 126.288 219.436L137.862 234.217L141.406 232.123Z" fill="white"/>
<path d="M147.811 282.763C141.323 279.108 133.314 271.047 133.314 271.047C133.314 271.047 146.48 277.678 153.046 279.966C159.611 282.253 166.938 282.763 166.938 282.763L172.576 290.457C172.576 290.457 156.428 287.618 147.811 282.763Z" fill="white"/>
<path d="M182.849 263.125C181.563 256.502 176.227 246.917 176.227 246.917C176.227 246.917 178.004 260.044 177.813 266.186C177.622 272.327 175.251 278.37 175.251 278.37L181.142 285.919C181.142 285.919 184.556 271.921 182.849 263.125Z" fill="white"/>
<path d="M217.254 257.426C211.818 281.579 219.066 311.333 219.066 311.333C219.066 311.333 264.986 309.545 290.14 295.055C311.638 282.672 319.642 267.493 325.174 247.274C333.026 218.57 321.147 168.514 321.147 168.514C321.147 168.514 308.06 186.016 293.966 194.067C277.958 203.212 261.599 206.895 246.852 217.52C230.41 229.367 221.355 239.207 217.254 257.426Z" fill="url(#paint2_linear_1018_168)"/>
<path d="M267.455 226.905C262.215 234.305 263.528 241.701 267.462 246.255L219.196 310.429C218.194 311.679 218.328 313.751 219.818 314.548C221.307 315.345 224.25 316.919 225.74 317.716C227.229 318.514 229.813 317.896 230.644 316.555L274.817 250.191C281.267 251.193 289.455 248.881 294.695 241.481C301.402 232.009 302.442 218.689 294.909 214.658C287.375 210.626 274.162 217.433 267.455 226.905Z" fill="white"/>
<path d="M273.026 281.404C279.514 277.745 287.523 269.677 287.523 269.677C287.523 269.677 274.357 276.314 267.791 278.603C261.225 280.893 253.898 281.404 253.898 281.404L248.261 289.105C248.261 289.105 264.409 286.263 273.026 281.404Z" fill="white"/>
<path d="M238.391 261.747C239.677 255.118 245.013 245.524 245.013 245.524C245.013 245.524 243.237 258.664 243.427 264.811C243.618 270.958 245.989 277.006 245.989 277.006L240.098 284.563C240.098 284.563 236.684 270.552 238.391 261.747Z" fill="white"/>
<path fill-rule="evenodd" clip-rule="evenodd" d="M225.77 221.979C230.453 215.016 236.13 208.045 242.376 203.401C246.694 200.191 251.41 197.569 255.987 195.023C266.778 189.023 276.8 183.45 279.021 171.619C281.067 160.721 270.765 146.413 270.765 146.413C270.765 146.413 268.855 156.415 264.524 161.391C262.764 163.413 259.908 164.936 257.042 166.463C253.901 168.137 250.749 169.817 249.021 172.168C245.606 176.811 246 183.674 246 183.674C246 183.674 242.684 181.788 242.376 175.638C242.114 170.392 246.018 165.954 250.061 161.358C253.388 157.577 256.809 153.688 258.081 149.153C263.531 129.73 242.175 114.632 242.175 114.632C242.175 114.632 247.776 125.911 245.396 131.984C243.201 137.586 235.777 139.405 228.272 141.243C223.034 142.526 217.757 143.819 214.188 146.413C204.492 153.464 203.92 166.323 203.92 166.323C203.92 166.323 203.169 157.053 203.92 149.153C204.774 140.168 212.189 135.135 219.78 129.982C227.945 124.44 236.314 118.759 236.94 107.873C238.226 85.5173 203.115 56 203.115 56C203.115 56 205.933 67.1419 205.933 82.302C205.933 88.5762 198.312 96.8836 190.191 105.736C178.69 118.273 166.186 131.903 172.913 142.395C184.39 160.295 182.478 169.592 170.497 171.619C158.706 173.614 159.624 145.317 159.624 145.317C159.624 145.317 145.183 156.659 145.329 167.601C145.512 181.277 155.793 187.353 169.584 195.504C173.604 197.881 177.923 200.433 182.376 203.401C188.34 207.376 193.71 213.494 198.21 219.863C199.907 218.103 201.479 216.131 202.509 214.091C205.614 207.943 206.738 194.932 206.738 194.932L197.677 197.374L210.764 178.378L222.845 196.643L214.993 194.932C214.993 194.932 217.209 207.849 220.227 214.091C221.591 216.91 223.759 219.714 225.77 221.979Z" fill="url(#paint3_linear_1018_168)" fill-opacity="0.2"/>
<path fill-rule="evenodd" clip-rule="evenodd" d="M225.923 222.15C230.15 216.27 235.051 210.638 240.363 206.689C244.681 203.479 249.397 200.856 253.974 198.311C264.765 192.31 274.787 186.737 277.007 174.907C279.053 164.009 268.753 149.701 268.753 149.701C268.753 149.701 266.842 159.702 262.511 164.678C260.751 166.7 257.894 168.223 255.029 169.75C251.888 171.425 248.736 173.105 247.008 175.455C243.592 180.099 243.988 186.962 243.988 186.962C243.988 186.962 240.67 185.076 240.363 178.925C240.101 173.679 244.005 169.242 248.048 164.646C251.375 160.864 254.796 156.975 256.068 152.441C261.518 133.017 240.162 117.919 240.162 117.919C240.162 117.919 245.763 129.199 243.383 135.271C241.188 140.874 233.764 142.692 226.258 144.531C221.021 145.814 215.744 147.106 212.176 149.701C202.479 156.751 201.907 169.61 201.907 169.61C201.907 169.61 201.156 160.34 201.907 152.441C202.761 143.456 210.176 138.423 217.767 133.27C225.932 127.727 234.301 122.046 234.927 111.161C236.213 88.8049 201.101 59.2876 201.101 59.2876C201.101 59.2876 203.92 70.4294 203.92 85.5897C203.92 91.5483 196.766 98.5227 188.889 106.203C176.724 118.062 162.835 131.603 170.9 145.683C184.189 168.88 180.465 172.88 168.484 174.907C156.693 176.902 157.612 148.605 157.612 148.605C157.612 148.605 143.17 159.947 143.317 170.889C143.499 184.565 153.78 190.641 167.571 198.792C171.592 201.168 175.91 203.72 180.363 206.689C186.072 210.494 191.237 216.263 195.616 222.336C198.193 220.064 200.963 217.155 202.51 214.091C205.615 207.943 206.738 194.932 206.738 194.932L197.678 197.373L210.765 178.377L222.846 196.643L214.993 194.932C214.993 194.932 217.21 207.849 220.228 214.091C221.626 216.981 223.87 219.856 225.923 222.15Z" fill="url(#paint4_linear_1018_168)"/>
<path d="M299.651 169.735C296.433 171.892 290.487 173.892 290.487 173.892C290.487 173.892 305.597 177.053 311.488 171.814C315.764 168.01 316.452 158.651 316.452 158.651C316.452 158.651 311.303 159.06 308.434 160.383C303.719 162.557 303.905 166.885 299.651 169.735Z" fill="#57A627"/>
<path d="M121.458 169.735C124.676 171.892 130.622 173.892 130.622 173.892C130.622 173.892 115.512 177.053 109.621 171.814C105.345 168.01 104.657 158.651 104.657 158.651C104.657 158.651 109.806 159.06 112.675 160.383C117.39 162.557 117.204 166.885 121.458 169.735Z" fill="#57A627"/>
<path d="M297 146.74C291.595 149.623 290.891 158.864 290.891 158.864C290.891 158.864 299.811 159.783 305.4 157.131C310.636 154.648 316.091 147.433 316.091 147.433C316.091 147.433 312.234 145.845 309.6 145.355C304.625 144.429 301.378 144.405 297 146.74Z" fill="#57A627"/>
<path d="M124.512 146.74C129.917 149.623 130.622 158.864 130.622 158.864C130.622 158.864 121.701 159.783 116.112 157.131C110.876 154.648 105.421 147.433 105.421 147.433C105.421 147.433 109.279 145.845 111.912 145.355C116.887 144.429 120.134 144.405 124.512 146.74Z" fill="#57A627"/>
<path d="M299.651 169.735C296.433 171.892 290.487 173.892 290.487 173.892C290.487 173.892 305.597 177.053 311.488 171.814C315.764 168.01 316.452 158.651 316.452 158.651C316.452 158.651 311.303 159.06 308.434 160.383C303.719 162.557 303.905 166.885 299.651 169.735Z" fill="#57A627"/>
<path d="M121.458 169.735C124.676 171.892 130.622 173.892 130.622 173.892C130.622 173.892 115.512 177.053 109.621 171.814C105.345 168.01 104.657 158.651 104.657 158.651C104.657 158.651 109.806 159.06 112.675 160.383C117.39 162.557 117.204 166.885 121.458 169.735Z" fill="#57A627"/>
<path d="M297 146.74C291.595 149.623 290.891 158.864 290.891 158.864C290.891 158.864 299.811 159.783 305.4 157.131C310.636 154.648 316.091 147.433 316.091 147.433C316.091 147.433 312.234 145.845 309.6 145.355C304.625 144.429 301.378 144.405 297 146.74Z" fill="#57A627"/>
<path d="M124.512 146.74C129.917 149.623 130.622 158.864 130.622 158.864C130.622 158.864 121.701 159.783 116.112 157.131C110.876 154.648 105.421 147.433 105.421 147.433C105.421 147.433 109.279 145.845 111.912 145.355C116.887 144.429 120.134 144.405 124.512 146.74Z" fill="#57A627"/>
</g>
<defs>
<linearGradient id="paint0_linear_1018_168" x1="211.935" y1="83.102" x2="211.935" y2="347.88" gradientUnits="userSpaceOnUse">
<stop offset="0.857161" stop-color="#57A627"/>
<stop offset="1" stop-color="#346D11"/>
</linearGradient>
<linearGradient id="paint1_linear_1018_168" x1="174.389" y1="246.216" x2="155.321" y2="314.246" gradientUnits="userSpaceOnUse">
<stop offset="0.2" stop-color="#57A627"/>
<stop offset="1" stop-color="#346D11"/>
</linearGradient>
<linearGradient id="paint2_linear_1018_168" x1="242.69" y1="273.002" x2="266.217" y2="314.367" gradientUnits="userSpaceOnUse">
<stop offset="0.281" stop-color="#57A627"/>
<stop offset="1" stop-color="#346D11"/>
</linearGradient>
<linearGradient id="paint3_linear_1018_168" x1="212.309" y1="56" x2="212.309" y2="245.959" gradientUnits="userSpaceOnUse">
<stop stop-color="#FBDF4D"/>
<stop offset="0.565" stop-color="#F78A30"/>
<stop offset="1" stop-color="#F05401"/>
</linearGradient>
<linearGradient id="paint4_linear_1018_168" x1="210.296" y1="59.2876" x2="210.296" y2="249.247" gradientUnits="userSpaceOnUse">
<stop offset="0.08" stop-color="#FBDF4D"/>
<stop offset="0.721" stop-color="#F7B330"/>
<stop offset="1" stop-color="#FB8A06"/>
</linearGradient>
<clipPath id="clip0_1018_168">
<rect width="292" height="292" fill="white" transform="translate(66 56)"/>
</clipPath>
</defs>
</svg>
