<svg width="410" height="390" viewBox="0 0 410 390" fill="none" xmlns="http://www.w3.org/2000/svg">
<rect width="410" height="390" fill="#1A3129"/>
<g clip-path="url(#clip0_233_66)">
<path fill-rule="evenodd" clip-rule="evenodd" d="M213.093 318.259C283.165 318.259 339.969 263.651 339.969 196.288C339.969 172.533 332.905 150.363 320.685 131.615C337.147 153.005 346.88 179.471 346.88 208.121C346.88 279.235 286.914 336.883 212.94 336.883C138.967 336.883 79 279.235 79 208.121C79 178.319 89.5319 150.882 107.213 129.062C93.9439 148.336 86.2175 171.445 86.2175 196.288C86.2175 263.651 143.022 318.259 213.093 318.259Z" fill="url(#paint0_linear_233_66)"/>
<path d="M205.645 250.251C210.635 273.721 203.982 302.633 203.982 302.633C203.982 302.633 161.184 301.836 138.75 286.817C120.395 274.528 111.673 260.034 106.596 240.386C99.3889 212.494 110.292 163.853 110.292 163.853C110.292 163.853 122.303 180.86 135.239 188.684C149.931 197.569 164.945 201.148 178.481 211.474C193.571 222.985 201.882 232.548 205.645 250.251Z" fill="url(#paint1_linear_233_66)"/>
<path d="M148.209 224.297L137.556 209.88C136.835 208.904 137.096 207.583 138.141 206.929C139.185 206.275 140.618 206.535 141.344 207.51L157.878 229.726C157.878 229.726 159.817 232.696 159.669 234.759C159.522 236.793 157.063 239.586 157.063 239.586L204.652 300.338L204.969 302.507L203.924 304.226L198.297 307.748L196.352 307.9L194.453 306.722L150.556 243.658C150.556 243.658 146.777 244.8 144.633 244.17C142.492 243.541 140.204 240.787 140.204 240.787L123.661 218.397C122.989 217.489 123.233 216.26 124.204 215.652C125.175 215.044 126.506 215.287 127.177 216.196L137.922 230.736L141.087 228.755L130.465 214.379C129.726 213.38 129.994 212.028 131.062 211.359C132.13 210.69 133.595 210.959 134.333 211.958L144.956 226.334L148.209 224.297Z" fill="white"/>
<path d="M154.086 273.551C148.132 269.996 140.781 262.156 140.781 262.156C140.781 262.156 152.865 268.604 158.891 270.83C164.917 273.055 171.641 273.551 171.641 273.551L176.816 281.034C176.816 281.034 161.995 278.273 154.086 273.551Z" fill="white"/>
<path d="M186.245 254.45C185.065 248.008 180.167 238.686 180.167 238.686C180.167 238.686 181.798 251.453 181.623 257.427C181.448 263.4 179.271 269.277 179.271 269.277L184.678 276.62C184.678 276.62 187.812 263.005 186.245 254.45Z" fill="white"/>
<path d="M217.822 248.907C212.833 272.398 219.485 301.337 219.485 301.337C219.485 301.337 261.631 299.598 284.718 285.506C304.448 273.462 311.795 258.699 316.872 239.034C324.079 211.117 313.176 162.432 313.176 162.432C313.176 162.432 301.164 179.454 288.229 187.285C273.537 196.178 258.522 199.761 244.987 210.095C229.897 221.617 221.586 231.188 217.822 248.907Z" fill="url(#paint2_linear_233_66)"/>
<path d="M263.896 219.222C259.087 226.419 260.292 233.613 263.903 238.043L219.604 300.458C218.684 301.674 218.807 303.689 220.174 304.464C221.542 305.239 224.242 306.771 225.61 307.546C226.977 308.321 229.348 307.721 230.111 306.417L270.653 241.87C276.574 242.845 284.088 240.596 288.897 233.399C295.053 224.187 296.008 211.232 289.094 207.311C282.179 203.39 270.052 210.01 263.896 219.222Z" fill="white"/>
<path d="M269.011 272.228C274.965 268.67 282.316 260.823 282.316 260.823C282.316 260.823 270.232 267.277 264.207 269.504C258.18 271.731 251.456 272.228 251.456 272.228L246.281 279.718C246.281 279.718 261.102 276.955 269.011 272.228Z" fill="white"/>
<path d="M237.222 253.11C238.402 246.663 243.3 237.332 243.3 237.332C243.3 237.332 241.669 250.111 241.844 256.09C242.019 262.069 244.195 267.951 244.195 267.951L238.789 275.301C238.789 275.301 235.655 261.674 237.222 253.11Z" fill="white"/>
<path fill-rule="evenodd" clip-rule="evenodd" d="M225.639 214.431C229.937 207.659 235.147 200.879 240.88 196.363C244.843 193.241 249.171 190.69 253.372 188.215C263.276 182.378 272.474 176.958 274.513 165.452C276.39 154.852 266.936 140.936 266.936 140.936C266.936 140.936 265.183 150.664 261.207 155.504C259.592 157.47 256.971 158.951 254.341 160.436C251.457 162.065 248.565 163.699 246.978 165.985C243.844 170.501 244.206 177.177 244.206 177.177C244.206 177.177 241.162 175.342 240.88 169.36C240.64 164.258 244.222 159.941 247.933 155.472C250.986 151.794 254.126 148.011 255.294 143.601C260.296 124.71 240.695 110.025 240.695 110.025C240.695 110.025 245.836 120.996 243.652 126.902C241.637 132.351 234.823 134.12 227.935 135.908C223.128 137.155 218.285 138.413 215.009 140.936C206.11 147.793 205.585 160.3 205.585 160.3C205.585 160.3 204.895 151.284 205.585 143.601C206.369 134.862 213.174 129.967 220.141 124.955C227.635 119.565 235.316 114.04 235.891 103.452C237.071 81.7086 204.845 53 204.845 53C204.845 53 207.433 63.8366 207.433 78.5814C207.433 84.6837 200.438 92.7635 192.984 101.373C182.428 113.567 170.952 126.823 177.126 137.028C187.66 154.438 185.905 163.48 174.909 165.452C164.087 167.392 164.93 139.87 164.93 139.87C164.93 139.87 151.675 150.902 151.81 161.544C151.978 174.845 161.413 180.755 174.071 188.682C177.761 190.993 181.724 193.476 185.812 196.363C191.286 200.229 196.214 206.179 200.344 212.374C201.901 210.661 203.345 208.744 204.29 206.76C207.139 200.781 208.171 188.126 208.171 188.126L199.855 190.5L211.866 172.025L222.954 189.79L215.747 188.126C215.747 188.126 217.782 200.689 220.552 206.76C221.803 209.502 223.793 212.229 225.639 214.431Z" fill="url(#paint3_linear_233_66)" fill-opacity="0.2"/>
<path fill-rule="evenodd" clip-rule="evenodd" d="M225.779 214.598C229.659 208.88 234.156 203.402 239.032 199.561C242.995 196.439 247.323 193.888 251.524 191.412C261.429 185.576 270.626 180.156 272.665 168.65C274.542 158.05 265.088 144.134 265.088 144.134C265.088 144.134 263.335 153.862 259.36 158.701C257.744 160.668 255.123 162.149 252.493 163.634C249.609 165.263 246.717 166.897 245.13 169.182C241.996 173.699 242.359 180.374 242.359 180.374C242.359 180.374 239.314 178.54 239.032 172.558C238.792 167.455 242.375 163.139 246.085 158.67C249.139 154.992 252.278 151.209 253.446 146.799C258.448 127.908 238.848 113.223 238.848 113.223C238.848 113.223 243.988 124.193 241.804 130.1C239.789 135.549 232.976 137.317 226.087 139.105C221.28 140.353 216.437 141.61 213.161 144.134C204.262 150.991 203.737 163.498 203.737 163.498C203.737 163.498 203.047 154.482 203.737 146.799C204.521 138.06 211.326 133.165 218.293 128.153C225.787 122.762 233.468 117.237 234.043 106.65C235.223 84.9063 202.997 56.1978 202.997 56.1978C202.997 56.1978 205.585 67.0343 205.585 81.7792C205.585 87.5746 199.019 94.3579 191.789 101.827C180.624 113.362 167.876 126.532 175.279 140.226C187.475 162.787 184.057 166.678 173.061 168.65C162.239 170.59 163.082 143.068 163.082 143.068C163.082 143.068 149.828 154.099 149.962 164.741C150.13 178.043 159.565 183.952 172.223 191.88C175.913 194.191 179.876 196.673 183.964 199.561C189.204 203.261 193.944 208.872 197.962 214.779C200.328 212.569 202.871 209.74 204.29 206.76C207.14 200.781 208.171 188.126 208.171 188.126L199.855 190.5L211.867 172.025L222.954 189.79L215.747 188.126C215.747 188.126 217.782 200.689 220.552 206.76C221.835 209.571 223.895 212.367 225.779 214.598Z" fill="url(#paint4_linear_233_66)"/>
<path d="M293.448 163.62C290.494 165.717 285.037 167.662 285.037 167.662C285.037 167.662 298.905 170.737 304.312 165.641C308.236 161.942 308.868 152.839 308.868 152.839C308.868 152.839 304.142 153.237 301.508 154.524C297.181 156.638 297.352 160.847 293.448 163.62Z" fill="#57A627"/>
<path d="M129.9 163.62C132.854 165.717 138.311 167.662 138.311 167.662C138.311 167.662 124.443 170.737 119.036 165.641C115.111 161.942 114.48 152.839 114.48 152.839C114.48 152.839 119.206 153.237 121.84 154.524C126.167 156.638 125.996 160.847 129.9 163.62Z" fill="#57A627"/>
<path d="M291.013 141.254C286.053 144.058 285.406 153.045 285.406 153.045C285.406 153.045 293.594 153.939 298.723 151.361C303.529 148.945 308.536 141.928 308.536 141.928C308.536 141.928 304.995 140.383 302.578 139.906C298.012 139.006 295.032 138.983 291.013 141.254Z" fill="#57A627"/>
<path d="M132.704 141.254C137.665 144.058 138.311 153.045 138.311 153.045C138.311 153.045 130.124 153.939 124.994 151.361C120.188 148.945 115.182 141.928 115.182 141.928C115.182 141.928 118.722 140.383 121.139 139.906C125.705 139.006 128.686 138.983 132.704 141.254Z" fill="#57A627"/>
<path d="M293.448 163.62C290.494 165.717 285.037 167.662 285.037 167.662C285.037 167.662 298.905 170.737 304.312 165.641C308.236 161.942 308.868 152.839 308.868 152.839C308.868 152.839 304.142 153.237 301.508 154.524C297.181 156.638 297.352 160.847 293.448 163.62Z" fill="#57A627"/>
<path d="M129.9 163.62C132.854 165.717 138.311 167.662 138.311 167.662C138.311 167.662 124.443 170.737 119.036 165.641C115.111 161.942 114.48 152.839 114.48 152.839C114.48 152.839 119.206 153.237 121.84 154.524C126.167 156.638 125.996 160.847 129.9 163.62Z" fill="#57A627"/>
<path d="M291.013 141.254C286.053 144.058 285.406 153.045 285.406 153.045C285.406 153.045 293.594 153.939 298.723 151.361C303.529 148.945 308.536 141.928 308.536 141.928C308.536 141.928 304.995 140.383 302.578 139.906C298.012 139.006 295.032 138.983 291.013 141.254Z" fill="#57A627"/>
<path d="M132.704 141.254C137.665 144.058 138.311 153.045 138.311 153.045C138.311 153.045 130.124 153.939 124.994 151.361C120.188 148.945 115.182 141.928 115.182 141.928C115.182 141.928 118.722 140.383 121.139 139.906C125.705 139.006 128.686 138.983 132.704 141.254Z" fill="#57A627"/>
</g>
<defs>
<linearGradient id="paint0_linear_233_66" x1="212.94" y1="79.3595" x2="212.94" y2="336.883" gradientUnits="userSpaceOnUse">
<stop offset="0.857161" stop-color="#57A627"/>
<stop offset="1" stop-color="#346D11"/>
</linearGradient>
<linearGradient id="paint1_linear_233_66" x1="178.481" y1="238.005" x2="159.002" y2="303.584" gradientUnits="userSpaceOnUse">
<stop offset="0.2" stop-color="#57A627"/>
<stop offset="1" stop-color="#346D11"/>
</linearGradient>
<linearGradient id="paint2_linear_233_66" x1="241.167" y1="264.057" x2="264.709" y2="303.115" gradientUnits="userSpaceOnUse">
<stop offset="0.281" stop-color="#57A627"/>
<stop offset="1" stop-color="#346D11"/>
</linearGradient>
<linearGradient id="paint3_linear_233_66" x1="213.284" y1="53" x2="213.284" y2="237.755" gradientUnits="userSpaceOnUse">
<stop stop-color="#FBDF4D"/>
<stop offset="0.565" stop-color="#F78A30"/>
<stop offset="1" stop-color="#F05401"/>
</linearGradient>
<linearGradient id="paint4_linear_233_66" x1="211.436" y1="56.1978" x2="211.436" y2="240.953" gradientUnits="userSpaceOnUse">
<stop offset="0.08" stop-color="#FBDF4D"/>
<stop offset="0.721" stop-color="#F7B330"/>
<stop offset="1" stop-color="#FB8A06"/>
</linearGradient>
<clipPath id="clip0_233_66">
<rect width="268" height="284" fill="white" transform="translate(79 53)"/>
</clipPath>
</defs>
</svg>
