<svg width="148" height="35" viewBox="0 0 148 35" fill="none" xmlns="http://www.w3.org/2000/svg">
<path d="M50.1968 28.7749V20.5402H52.7713V32H49.0621L43.8624 23.7817H43.5744V32H41V20.5402H44.4721V20.5566H44.7092L49.892 28.7749H50.1968Z" fill="white"/>
<path d="M62.1375 22.8158H64.7119V32H62.1375V30.6576H62.0189C61.4092 31.4761 60.5454 32 58.8348 32C54.8207 32 54.719 28.7585 54.719 27.4161V22.8158H57.2765V27.4161C57.2765 28.1364 57.1072 29.8718 59.58 29.8718C61.7988 29.8718 62.1375 28.4966 62.1375 27.2524V22.8158Z" fill="white"/>
<path d="M70.1657 24.9441V28.2019V28.3984C70.1657 29.7244 70.7754 29.5443 73.2482 29.4134V31.8363C73.2482 31.8363 72.7401 32 70.1657 32C67.5743 32 67.5743 29.9536 67.5743 28.6276V24.9441H66.321V22.8486H67.5743V20.1965H70.1657V22.8486H73.2482V24.9441H70.1657Z" fill="white"/>
<path d="M80.4994 22.8158C81.1769 22.8158 81.7358 22.9632 82.1762 23.0614L81.7697 25.4025C81.5326 25.337 80.872 25.206 80.0591 25.206C78.1452 25.206 77.5862 26.6467 77.5862 27.8909V32H75.0118V22.8158H77.5862V24.1746H77.7387C78.2807 23.2906 78.8565 22.8158 80.4994 22.8158Z" fill="white"/>
<path d="M86.1113 32H83.5538V22.8813H86.1113V32ZM86.1113 22.2265H83.5538V20H86.1113V22.2265Z" fill="white"/>
<path d="M91.7228 24.9441V28.2019V28.3984C91.7228 29.7244 92.3325 29.5443 94.8053 29.4134V31.8363C94.8053 31.8363 94.2972 32 91.7228 32C89.1314 32 89.1314 29.9536 89.1314 28.6276V24.9441H87.878V22.8486H89.1314V20.1965H91.7228V22.8486H94.8053V24.9441H91.7228Z" fill="white"/>
<path d="M99.0768 32H96.5193V22.8813H99.0768V32ZM99.0768 22.2265H96.5193V20H99.0768V22.2265Z" fill="white"/>
<path d="M106.128 22.6521C109.024 22.6521 111.429 24.1419 111.429 27.3342C111.429 30.5593 109.024 32 106.128 32C103.249 32 100.844 30.5102 100.844 27.3342C100.844 24.1746 103.249 22.6521 106.128 22.6521ZM106.128 29.7408C107.754 29.7408 108.906 28.9877 108.906 27.3342C108.906 25.6317 107.754 24.9277 106.128 24.9277C104.519 24.9277 103.367 25.5989 103.367 27.3342C103.367 29.0532 104.519 29.7408 106.128 29.7408Z" fill="white"/>
<path d="M119.034 22.8158C123.048 22.8158 123.15 26.0737 123.15 27.4161V32H120.592V27.4161C120.592 26.6958 120.744 24.9604 118.289 24.9604C116.053 24.9604 115.731 26.3356 115.731 27.5798V32H113.157V22.8158H115.731V24.1746H115.85C116.459 23.3561 117.323 22.8158 119.034 22.8158Z" fill="white"/>
<path d="M127.647 32H125.089V22.8813H127.647V32ZM127.647 22.2265H125.089V20H127.647V22.2265Z" fill="white"/>
<path d="M134.295 26.4338C136.446 26.7449 138.885 27.105 138.885 29.2824C138.885 31.558 137.192 32 134.279 32C132.128 32 130.654 31.6235 129.892 30.8868C129.231 30.2483 129.231 29.4789 129.248 29.0041V28.824H131.89V28.9059C131.89 29.6917 132.5 30.0518 134.211 30.0518C135.244 30.0518 136.226 29.9209 136.226 29.3151C136.226 28.6276 135.312 28.4966 134.279 28.382C134.143 28.3656 134.008 28.3492 133.872 28.3329C131.145 27.9891 129.451 27.3997 129.451 25.5662C129.451 24.2892 130.214 22.7667 133.872 22.7667C137.801 22.7667 138.631 24.4529 138.631 25.8608V25.9427H136.006V25.8608C136.006 25.1405 135.362 24.7476 133.872 24.7476C132.432 24.7476 132.128 25.2551 132.128 25.5334C132.128 25.9427 132.415 26.1719 134.075 26.4175L134.295 26.4338Z" fill="white"/>
<path d="M143.917 24.9441V28.2019V28.3984C143.917 29.7244 144.527 29.5443 147 29.4134V31.8363C147 31.8363 146.492 32 143.917 32C141.326 32 141.326 29.9536 141.326 28.6276V24.9441H140.073V22.8486H141.326V20.1965H143.917V22.8486H147V24.9441H143.917Z" fill="white"/>
<g clip-path="url(#clip0_141_1087)">
<path fill-rule="evenodd" clip-rule="evenodd" d="M17.0118 32.7564C25.9015 32.7564 33.108 26.2188 33.108 18.1542C33.108 15.3103 32.2118 12.6562 30.6615 10.4117C32.75 12.9725 33.9848 16.1409 33.9848 19.5709C33.9848 28.0844 26.3771 34.986 16.9924 34.986C7.60774 34.986 0 28.0844 0 19.5709C0 16.003 1.33613 12.7183 3.57923 10.106C1.89587 12.4135 0.915658 15.18 0.915658 18.1542C0.915658 26.2188 8.12215 32.7564 17.0118 32.7564Z" fill="url(#paint0_linear_141_1087)"/>
<path d="M16.0669 24.6144C16.6999 27.4242 15.8559 30.8856 15.8559 30.8856C15.8559 30.8856 10.4264 30.79 7.58019 28.992C5.25154 27.5209 4.145 25.7856 3.50095 23.4334C2.58664 20.0942 3.96983 14.271 3.96983 14.271C3.96983 14.271 5.49371 16.3071 7.13476 17.2437C8.99868 18.3074 10.9035 18.7359 12.6207 19.9721C14.5351 21.3502 15.5895 22.495 16.0669 24.6144Z" fill="url(#paint1_linear_141_1087)"/>
<path d="M8.78015 21.5073L7.42869 19.7813C7.33717 19.6644 7.37034 19.5062 7.50281 19.428C7.63538 19.3497 7.81711 19.3808 7.90919 19.4975L10.0068 22.1571C10.0068 22.1571 10.2528 22.5127 10.234 22.7598C10.2154 23.0033 9.90336 23.3375 9.90336 23.3375L15.9409 30.6107L15.9811 30.8704L15.8485 31.0761L15.1346 31.4978L14.8879 31.516L14.6469 31.375L9.0779 23.8251C9.0779 23.8251 8.59851 23.9617 8.32646 23.8863C8.05484 23.8111 7.76465 23.4814 7.76465 23.4814L5.66579 20.8009C5.58063 20.6921 5.61152 20.545 5.73472 20.4722C5.85792 20.3994 6.02685 20.4286 6.11197 20.5373L7.47503 22.2781L7.87663 22.0409L6.52901 20.3198C6.43531 20.2002 6.46927 20.0384 6.6048 19.9583C6.74034 19.8783 6.92616 19.9104 7.01981 20.0299L8.36742 21.751L8.78015 21.5073Z" fill="white"/>
<path d="M9.52583 27.4037C8.77041 26.9781 7.83789 26.0396 7.83789 26.0396C7.83789 26.0396 9.37091 26.8116 10.1354 27.078C10.8998 27.3443 11.753 27.4037 11.753 27.4037L12.4094 28.2996C12.4094 28.2996 10.5292 27.9691 9.52583 27.4037Z" fill="white"/>
<path d="M13.6059 25.1172C13.4562 24.3461 12.8348 23.23 12.8348 23.23C12.8348 23.23 13.0417 24.7585 13.0195 25.4736C12.9973 26.1888 12.7212 26.8924 12.7212 26.8924L13.4071 27.7714C13.4071 27.7714 13.8047 26.1415 13.6059 25.1172Z" fill="white"/>
<path d="M17.6119 24.4538C16.9789 27.2661 17.8229 30.7306 17.8229 30.7306C17.8229 30.7306 23.1696 30.5224 26.0986 28.8353C28.6017 27.3935 29.5338 25.6261 30.1779 23.2718C31.0921 19.9296 29.709 14.1011 29.709 14.1011C29.709 14.1011 28.1851 16.139 26.544 17.0765C24.6802 18.1412 22.7753 18.5701 21.0582 19.8073C19.1438 21.1867 18.0893 22.3325 17.6119 24.4538Z" fill="url(#paint2_linear_141_1087)"/>
<path d="M23.457 20.8998C22.8469 21.7614 22.9997 22.6226 23.4579 23.1529L17.8378 30.6252C17.7211 30.7707 17.7368 31.012 17.9102 31.1048C18.0837 31.1976 18.4263 31.3809 18.5998 31.4737C18.7732 31.5666 19.074 31.4947 19.1708 31.3385L24.3143 23.6112C25.0653 23.7279 26.0186 23.4586 26.6288 22.597C27.4097 21.4941 27.5309 19.9432 26.6537 19.4738C25.7764 19.0044 24.238 19.7969 23.457 20.8998Z" fill="white"/>
<path d="M24.1058 27.2458C24.8612 26.8198 25.7938 25.8804 25.7938 25.8804C25.7938 25.8804 24.2607 26.6531 23.4963 26.9197C22.7318 27.1863 21.8786 27.2458 21.8786 27.2458L21.2222 28.1425C21.2222 28.1425 23.1024 27.8116 24.1058 27.2458Z" fill="white"/>
<path d="M20.0728 24.9568C20.2225 24.185 20.8438 23.0679 20.8438 23.0679C20.8438 23.0679 20.637 24.5978 20.6591 25.3136C20.6813 26.0294 20.9574 26.7336 20.9574 26.7336L20.2715 27.6134C20.2715 27.6134 19.8739 25.982 20.0728 24.9568Z" fill="white"/>
<path fill-rule="evenodd" clip-rule="evenodd" d="M18.6033 20.3263C19.1486 19.5155 19.8096 18.7038 20.537 18.1631C21.0397 17.7894 21.5888 17.4841 22.1218 17.1877C23.3783 16.4889 24.5452 15.84 24.8038 14.4625C25.042 13.1935 23.8425 11.5276 23.8425 11.5276C23.8425 11.5276 23.6201 12.6921 23.1158 13.2716C22.9109 13.507 22.5783 13.6843 22.2446 13.8621C21.8788 14.0571 21.5118 14.2527 21.3106 14.5264C20.913 15.0671 20.9589 15.8662 20.9589 15.8662C20.9589 15.8662 20.5727 15.6466 20.537 14.9304C20.5064 14.3196 20.961 13.8029 21.4317 13.2677C21.8191 12.8274 22.2174 12.3746 22.3656 11.8466C23.0002 9.58496 20.5135 7.82697 20.5135 7.82697C20.5135 7.82697 21.1657 9.14031 20.8886 9.84741C20.633 10.4998 19.7685 10.7115 18.8946 10.9256C18.2848 11.0749 17.6703 11.2255 17.2548 11.5276C16.1258 12.3485 16.0592 13.8458 16.0592 13.8458C16.0592 13.8458 15.9717 12.7664 16.0592 11.8466C16.1586 10.8004 17.022 10.2143 17.9059 9.61437C18.8566 8.969 19.8311 8.30756 19.9039 7.04005C20.0537 4.43694 15.9654 1 15.9654 1C15.9654 1 16.2936 2.29734 16.2936 4.06257C16.2936 4.79312 15.4062 5.76042 14.4606 6.79115C13.1214 8.25101 11.6655 9.83802 12.4488 11.0597C13.7851 13.1439 13.5625 14.2265 12.1674 14.4625C10.7945 14.6948 10.9015 11.4 10.9015 11.4C10.9015 11.4 9.21992 12.7206 9.23694 13.9946C9.25828 15.5871 10.4553 16.2946 12.0612 17.2437C12.5292 17.5203 13.0321 17.8175 13.5506 18.1631C14.2451 18.626 14.8703 19.3384 15.3943 20.0799C15.5919 19.875 15.775 19.6454 15.8949 19.4079C16.2564 18.692 16.3872 17.1771 16.3872 17.1771L15.3323 17.4613L16.8561 15.2495L18.2628 17.3762L17.3484 17.1771C17.3484 17.1771 17.6066 18.6811 17.958 19.4079C18.1167 19.7361 18.3692 20.0626 18.6033 20.3263Z" fill="url(#paint3_linear_141_1087)" fill-opacity="0.2"/>
<path fill-rule="evenodd" clip-rule="evenodd" d="M18.6211 20.3462C19.1134 19.6616 19.6839 19.0058 20.3025 18.546C20.8053 18.1722 21.3544 17.8669 21.8874 17.5705C23.1439 16.8718 24.3107 16.2229 24.5693 14.8454C24.8076 13.5764 23.6081 11.9104 23.6081 11.9104C23.6081 11.9104 23.3857 13.075 22.8814 13.6543C22.6765 13.8898 22.3438 14.0671 22.0102 14.2449C21.6444 14.4399 21.2774 14.6355 21.0762 14.9091C20.6785 15.4499 20.7245 16.249 20.7245 16.249C20.7245 16.249 20.3383 16.0294 20.3025 15.3132C20.272 14.7024 20.7266 14.1857 21.1973 13.6506C21.5847 13.2102 21.983 12.7574 22.1312 12.2294C22.7658 9.96779 20.2791 8.2098 20.2791 8.2098C20.2791 8.2098 20.9313 9.52313 20.6542 10.2302C20.3986 10.8826 19.5342 11.0943 18.6602 11.3084C18.0504 11.4578 17.4359 11.6082 17.0204 11.9104C15.8913 12.7313 15.8247 14.2286 15.8247 14.2286C15.8247 14.2286 15.7373 13.1492 15.8247 12.2294C15.9242 11.1832 16.7876 10.5972 17.6715 9.9972C18.6222 9.35183 19.5967 8.69034 19.6696 7.42288C19.8193 4.81976 15.731 1.38281 15.731 1.38281C15.731 1.38281 16.0592 2.68015 16.0592 4.44538C16.0592 5.1392 15.2262 5.95128 14.3089 6.84551C12.8925 8.22638 11.2752 9.80309 12.2144 11.4425C13.7617 14.1435 13.3281 14.6093 11.9331 14.8454C10.5601 15.0776 10.6671 11.7828 10.6671 11.7828C10.6671 11.7828 8.98555 13.1034 9.00257 14.3775C9.02386 15.9699 10.2209 16.6774 11.8267 17.6265C12.2949 17.9031 12.7977 18.2003 13.3163 18.546C13.981 18.989 14.5824 19.6608 15.0922 20.3679C15.3922 20.1034 15.7149 19.7646 15.895 19.4079C16.2564 18.692 16.3873 17.177 16.3873 17.177L15.3323 17.4613L16.8562 15.2494L18.2628 17.3762L17.3485 17.177C17.3485 17.177 17.6066 18.6811 17.958 19.4079C18.1207 19.7444 18.3821 20.0792 18.6211 20.3462Z" fill="url(#paint4_linear_141_1087)"/>
<path d="M27.2062 14.2433C26.8315 14.4944 26.1392 14.7273 26.1392 14.7273C26.1392 14.7273 27.8985 15.0954 28.5845 14.4853C29.0824 14.0424 29.1624 12.9526 29.1624 12.9526C29.1624 12.9526 28.5629 13.0003 28.2288 13.1543C27.6798 13.4074 27.7015 13.9114 27.2062 14.2433Z" fill="#57A627"/>
<path d="M6.45721 14.2433C6.83195 14.4944 7.52424 14.7273 7.52424 14.7273C7.52424 14.7273 5.76487 15.0954 5.07893 14.4853C4.58103 14.0424 4.50098 12.9526 4.50098 12.9526C4.50098 12.9526 5.1005 13.0003 5.43461 13.1543C5.98362 13.4074 5.96186 13.9114 6.45721 14.2433Z" fill="#57A627"/>
<path d="M26.8974 11.5654C26.268 11.901 26.186 12.977 26.186 12.977C26.186 12.977 27.2247 13.084 27.8755 12.7753C28.4852 12.4862 29.1204 11.6461 29.1204 11.6461C29.1204 11.6461 28.6712 11.4611 28.3645 11.4041C27.7853 11.2963 27.4072 11.2935 26.8974 11.5654Z" fill="#57A627"/>
<path d="M6.81332 11.5654C7.44267 11.901 7.52468 12.977 7.52468 12.977C7.52468 12.977 6.48598 13.084 5.83521 12.7753C5.22552 12.4862 4.59033 11.6461 4.59033 11.6461C4.59033 11.6461 5.03952 11.4611 5.34612 11.4041C5.92542 11.2963 6.30355 11.2935 6.81332 11.5654Z" fill="#57A627"/>
<path d="M27.2062 14.2433C26.8315 14.4944 26.1392 14.7273 26.1392 14.7273C26.1392 14.7273 27.8985 15.0954 28.5845 14.4853C29.0824 14.0424 29.1624 12.9526 29.1624 12.9526C29.1624 12.9526 28.5629 13.0003 28.2288 13.1543C27.6798 13.4074 27.7015 13.9114 27.2062 14.2433Z" fill="#57A627"/>
<path d="M6.45721 14.2433C6.83195 14.4944 7.52424 14.7273 7.52424 14.7273C7.52424 14.7273 5.76487 15.0954 5.07893 14.4853C4.58103 14.0424 4.50098 12.9526 4.50098 12.9526C4.50098 12.9526 5.1005 13.0003 5.43461 13.1543C5.98362 13.4074 5.96186 13.9114 6.45721 14.2433Z" fill="#57A627"/>
<path d="M26.8974 11.5654C26.268 11.901 26.186 12.977 26.186 12.977C26.186 12.977 27.2247 13.084 27.8755 12.7753C28.4852 12.4862 29.1204 11.6461 29.1204 11.6461C29.1204 11.6461 28.6712 11.4611 28.3645 11.4041C27.7853 11.2963 27.4072 11.2935 26.8974 11.5654Z" fill="#57A627"/>
<path d="M6.81332 11.5654C7.44267 11.901 7.52468 12.977 7.52468 12.977C7.52468 12.977 6.48598 13.084 5.83521 12.7753C5.22552 12.4862 4.59033 11.6461 4.59033 11.6461C4.59033 11.6461 5.03952 11.4611 5.34612 11.4041C5.92542 11.2963 6.30355 11.2935 6.81332 11.5654Z" fill="#57A627"/>
</g>
<defs>
<linearGradient id="paint0_linear_141_1087" x1="16.9924" y1="4.15571" x2="16.9924" y2="34.986" gradientUnits="userSpaceOnUse">
<stop offset="0.857161" stop-color="#57A627"/>
<stop offset="1" stop-color="#346D11"/>
</linearGradient>
<linearGradient id="paint1_linear_141_1087" x1="12.6207" y1="23.1484" x2="10.4004" y2="31.0696" gradientUnits="userSpaceOnUse">
<stop offset="0.2" stop-color="#57A627"/>
<stop offset="1" stop-color="#346D11"/>
</linearGradient>
<linearGradient id="paint2_linear_141_1087" x1="20.5735" y1="26.2675" x2="23.3131" y2="31.0839" gradientUnits="userSpaceOnUse">
<stop offset="0.281" stop-color="#57A627"/>
<stop offset="1" stop-color="#346D11"/>
</linearGradient>
<linearGradient id="paint3_linear_141_1087" x1="17.0359" y1="1" x2="17.0359" y2="23.1186" gradientUnits="userSpaceOnUse">
<stop stop-color="#FBDF4D"/>
<stop offset="0.565" stop-color="#F78A30"/>
<stop offset="1" stop-color="#F05401"/>
</linearGradient>
<linearGradient id="paint4_linear_141_1087" x1="16.8016" y1="1.38281" x2="16.8016" y2="23.5013" gradientUnits="userSpaceOnUse">
<stop offset="0.08" stop-color="#FBDF4D"/>
<stop offset="0.721" stop-color="#F7B330"/>
<stop offset="1" stop-color="#FB8A06"/>
</linearGradient>
<clipPath id="clip0_141_1087">
<rect width="34" height="34" fill="white" transform="translate(0 1)"/>
</clipPath>
</defs>
</svg>
