<svg width="733" height="808" viewBox="0 0 733 808" fill="none" xmlns="http://www.w3.org/2000/svg">
<path fill-rule="evenodd" clip-rule="evenodd" d="M366.755 754.68C558.406 754.68 713.77 599.316 713.77 407.665C713.77 340.079 694.448 277.005 661.026 223.666C706.051 284.522 732.673 359.818 732.673 441.331C732.673 643.653 568.659 807.667 366.337 807.667C164.014 807.667 0 643.653 0 441.331C0 356.542 28.8054 278.481 77.1639 216.4C40.8727 271.237 19.7405 336.983 19.7405 407.665C19.7405 599.316 175.104 754.68 366.755 754.68Z" fill="url(#paint0_linear_64_151)"/>
<path d="M346.382 561.192C360.028 627.967 341.833 710.225 341.833 710.225C341.833 710.225 224.778 707.955 163.418 665.225C113.215 630.264 89.3595 589.026 75.4744 533.127C55.763 453.772 85.5829 315.385 85.5829 315.385C85.5829 315.385 118.436 363.772 153.815 386.03C193.999 411.31 235.065 421.493 272.085 450.869C313.357 483.62 336.089 510.826 346.382 561.192Z" fill="url(#paint1_linear_64_151)"/>
<path d="M189.291 487.354L160.155 446.336C158.182 443.558 158.897 439.799 161.753 437.94C164.611 436.079 168.529 436.818 170.514 439.592L215.737 502.798C215.737 502.798 221.04 511.247 220.634 517.119C220.234 522.906 213.506 530.85 213.506 530.85L343.668 703.694L344.534 709.865L341.677 714.755L326.286 724.776L320.966 725.209L315.771 721.857L195.71 542.437C195.71 542.437 185.375 545.684 179.51 543.892C173.654 542.104 167.398 534.269 167.398 534.269L122.149 470.567C120.313 467.983 120.979 464.486 123.635 462.756C126.291 461.027 129.933 461.72 131.768 464.304L161.154 505.673L169.812 500.036L140.759 459.135C138.739 456.293 139.471 452.446 142.393 450.544C145.315 448.641 149.321 449.404 151.34 452.246L180.393 493.147L189.291 487.354Z" fill="white"/>
<path d="M205.368 627.482C189.082 617.368 168.978 595.063 168.978 595.063C168.978 595.063 202.028 613.41 218.509 619.741C234.99 626.071 253.383 627.482 253.383 627.482L267.535 648.773C267.535 648.773 226.999 640.917 205.368 627.482Z" fill="white"/>
<path d="M293.324 573.139C290.096 554.813 276.701 528.289 276.701 528.289C276.701 528.289 281.161 564.614 280.682 581.609C280.204 598.604 274.251 615.325 274.251 615.325L289.039 636.215C289.039 636.215 297.61 597.48 293.324 573.139Z" fill="white"/>
<path d="M379.69 557.37C366.044 624.204 384.239 706.537 384.239 706.537C384.239 706.537 499.509 701.59 562.654 661.496C616.619 627.231 636.713 585.229 650.598 529.28C670.309 449.853 640.489 311.341 640.489 311.341C640.489 311.341 607.637 359.772 572.257 382.05C532.074 407.353 491.007 417.545 453.988 446.947C412.716 479.728 389.984 506.958 379.69 557.37Z" fill="url(#paint2_linear_64_151)"/>
<path d="M505.707 472.914C492.553 493.39 495.848 513.856 505.725 526.459L384.563 704.036C382.048 707.494 382.385 713.227 386.124 715.433C389.864 717.638 397.25 721.995 400.99 724.201C404.729 726.407 411.214 724.698 413.302 720.988L524.188 537.349C540.38 540.123 560.932 533.724 574.086 513.248C590.923 487.039 593.534 450.18 574.623 439.025C555.711 427.87 522.544 446.705 505.707 472.914Z" fill="white"/>
<path d="M519.693 623.72C535.978 613.596 556.083 591.271 556.083 591.271C556.083 591.271 523.033 609.635 506.552 615.971C490.07 622.307 471.677 623.72 471.677 623.72L457.525 645.029C457.525 645.029 498.061 637.167 519.693 623.72Z" fill="white"/>
<path d="M432.749 569.327C435.976 550.985 449.371 524.437 449.371 524.437C449.371 524.437 444.912 560.795 445.39 577.805C445.868 594.816 451.821 611.551 451.821 611.551L437.033 632.461C437.033 632.461 428.462 593.691 432.749 569.327Z" fill="white"/>
<path fill-rule="evenodd" clip-rule="evenodd" d="M401.067 459.284C412.823 440.016 427.073 420.726 442.754 407.877C453.592 398.995 465.43 391.739 476.921 384.695C504.009 368.09 529.166 352.669 534.741 319.933C539.877 289.776 514.018 250.185 514.018 250.185C514.018 250.185 509.223 277.86 498.35 291.63C493.933 297.224 486.762 301.438 479.569 305.664C471.683 310.298 463.771 314.947 459.433 321.45C450.86 334.3 451.851 353.291 451.851 353.291C451.851 353.291 443.525 348.072 442.754 331.053C442.096 316.536 451.895 304.256 462.044 291.539C470.395 281.075 478.983 270.314 482.177 257.766C495.858 204.019 442.248 162.241 442.248 162.241C442.248 162.241 456.309 193.452 450.335 210.256C444.824 225.759 426.188 230.791 407.347 235.878C394.2 239.428 380.953 243.005 371.994 250.185C347.654 269.694 346.218 305.276 346.218 305.276C346.218 305.276 344.332 279.625 346.218 257.766C348.362 232.904 366.976 218.976 386.031 204.718C406.528 189.381 427.536 173.662 429.107 143.54C432.335 81.6779 344.196 0 344.196 0C344.196 0 351.272 30.8309 351.272 72.781C351.272 90.1423 332.141 113.13 311.755 137.625C282.883 172.318 251.496 210.033 268.382 239.065C297.192 288.597 292.393 314.324 262.317 319.933C232.719 325.453 235.024 247.152 235.024 247.152C235.024 247.152 198.772 278.537 199.139 308.814C199.599 346.657 225.406 363.471 260.026 386.026C270.117 392.601 280.958 399.663 292.137 407.877C307.109 418.876 320.588 435.806 331.885 453.429C336.144 448.558 340.091 443.102 342.677 437.458C350.47 420.446 353.291 384.443 353.291 384.443L330.547 391.198L363.399 338.634L393.725 389.176L374.013 384.443C374.013 384.443 379.578 420.186 387.154 437.458C390.576 445.258 396.019 453.017 401.067 459.284Z" fill="url(#paint3_linear_64_151)" fill-opacity="0.2"/>
<path fill-rule="evenodd" clip-rule="evenodd" d="M401.45 459.758C412.062 443.488 424.363 427.903 437.699 416.975C448.538 408.093 460.376 400.836 471.866 393.793C498.955 377.188 524.111 361.767 529.686 329.031C534.822 298.874 508.964 259.282 508.964 259.282C508.964 259.282 504.168 286.958 493.296 300.727C488.878 306.322 481.707 310.535 474.515 314.762C466.628 319.396 458.716 324.045 454.378 330.547C445.805 343.397 446.797 362.389 446.797 362.389C446.797 362.389 438.47 357.169 437.699 340.15C437.041 325.633 446.841 313.354 456.99 300.637C465.341 290.173 473.928 279.412 477.122 266.864C490.803 213.117 437.194 171.339 437.194 171.339C437.194 171.339 451.254 202.55 445.28 219.354C439.769 234.857 421.134 239.889 402.292 244.976C389.145 248.526 375.898 252.102 366.94 259.282C342.599 278.791 341.163 314.374 341.163 314.374C341.163 314.374 339.277 288.723 341.163 266.864C343.308 242.002 361.921 228.074 380.976 213.816C401.473 198.479 422.481 182.759 424.053 152.638C427.28 90.7756 339.141 9.09766 339.141 9.09766C339.141 9.09766 346.217 39.9285 346.217 81.8787C346.217 98.367 328.259 117.666 308.484 138.917C277.948 171.733 243.081 209.203 263.328 248.163C296.686 312.352 287.338 323.422 257.263 329.031C227.664 334.551 229.97 256.25 229.97 256.25C229.97 256.25 193.718 287.635 194.085 317.912C194.544 355.755 220.351 372.568 254.971 395.124C265.063 401.698 275.903 408.761 287.083 416.975C301.414 427.504 314.379 443.468 325.37 460.272C331.839 453.986 338.794 445.935 342.677 437.458C350.47 420.446 353.291 384.443 353.291 384.443L330.547 391.198L363.399 338.634L393.725 389.176L374.013 384.443C374.013 384.443 379.578 420.186 387.154 437.458C390.662 445.456 396.297 453.411 401.45 459.758Z" fill="url(#paint4_linear_64_151)"/>
<path d="M586.529 314.72C578.451 320.688 563.525 326.222 563.525 326.222C563.525 326.222 601.455 334.97 616.243 320.471C626.977 309.946 628.703 284.048 628.703 284.048C628.703 284.048 615.778 285.18 608.575 288.841C596.739 294.856 597.208 306.832 586.529 314.72Z" fill="#57A627"/>
<path d="M139.215 314.72C147.294 320.688 162.219 326.222 162.219 326.222C162.219 326.222 124.289 334.97 109.501 320.471C98.7668 309.946 97.041 284.048 97.041 284.048C97.041 284.048 109.966 285.18 117.169 288.841C129.005 294.856 128.536 306.832 139.215 314.72Z" fill="#57A627"/>
<path d="M579.873 251.088C566.305 259.065 564.537 284.636 564.537 284.636C564.537 284.636 586.93 287.179 600.96 279.843C614.104 272.971 627.798 253.006 627.798 253.006C627.798 253.006 618.114 248.611 611.503 247.255C599.015 244.694 590.863 244.627 579.873 251.088Z" fill="#57A627"/>
<path d="M146.883 251.088C160.451 259.065 162.219 284.636 162.219 284.636C162.219 284.636 139.826 287.179 125.796 279.843C112.652 272.971 98.958 253.006 98.958 253.006C98.958 253.006 108.642 248.611 115.252 247.255C127.741 244.694 135.893 244.627 146.883 251.088Z" fill="#57A627"/>
<path d="M586.529 314.72C578.451 320.688 563.525 326.222 563.525 326.222C563.525 326.222 601.455 334.97 616.243 320.471C626.977 309.946 628.703 284.048 628.703 284.048C628.703 284.048 615.778 285.18 608.575 288.841C596.739 294.856 597.208 306.832 586.529 314.72Z" fill="#57A627"/>
<path d="M139.215 314.72C147.294 320.688 162.219 326.222 162.219 326.222C162.219 326.222 124.289 334.97 109.501 320.471C98.7668 309.946 97.041 284.048 97.041 284.048C97.041 284.048 109.966 285.18 117.169 288.841C129.005 294.856 128.536 306.832 139.215 314.72Z" fill="#57A627"/>
<path d="M579.873 251.088C566.305 259.065 564.537 284.636 564.537 284.636C564.537 284.636 586.93 287.179 600.96 279.843C614.104 272.971 627.798 253.006 627.798 253.006C627.798 253.006 618.114 248.611 611.503 247.255C599.015 244.694 590.863 244.627 579.873 251.088Z" fill="#57A627"/>
<path d="M146.883 251.088C160.451 259.065 162.219 284.636 162.219 284.636C162.219 284.636 139.826 287.179 125.796 279.843C112.652 272.971 98.958 253.006 98.958 253.006C98.958 253.006 108.642 248.611 115.252 247.255C127.741 244.694 135.893 244.627 146.883 251.088Z" fill="#57A627"/>
<defs>
<linearGradient id="paint0_linear_64_151" x1="366.337" y1="74.9941" x2="366.337" y2="807.667" gradientUnits="userSpaceOnUse">
<stop offset="0.857161" stop-color="#57A627"/>
<stop offset="1" stop-color="#346D11"/>
</linearGradient>
<linearGradient id="paint1_linear_64_151" x1="272.085" y1="526.353" x2="214.82" y2="711.696" gradientUnits="userSpaceOnUse">
<stop offset="0.2" stop-color="#57A627"/>
<stop offset="1" stop-color="#346D11"/>
</linearGradient>
<linearGradient id="paint2_linear_64_151" x1="443.54" y1="600.473" x2="511.721" y2="709.216" gradientUnits="userSpaceOnUse">
<stop offset="0.281" stop-color="#57A627"/>
<stop offset="1" stop-color="#346D11"/>
</linearGradient>
<linearGradient id="paint3_linear_64_151" x1="367.276" y1="0" x2="367.276" y2="525.641" gradientUnits="userSpaceOnUse">
<stop stop-color="#FBDF4D"/>
<stop offset="0.565" stop-color="#F78A30"/>
<stop offset="1" stop-color="#F05401"/>
</linearGradient>
<linearGradient id="paint4_linear_64_151" x1="362.222" y1="9.09766" x2="362.222" y2="534.738" gradientUnits="userSpaceOnUse">
<stop offset="0.08" stop-color="#FBDF4D"/>
<stop offset="0.721" stop-color="#F7B330"/>
<stop offset="1" stop-color="#FB8A06"/>
</linearGradient>
</defs>
</svg>
