<svg width="54" height="54" viewBox="0 0 54 54" fill="none" xmlns="http://www.w3.org/2000/svg">
<rect width="54" height="54" rx="6" fill="#D3EE91"/>
<g clip-path="url(#clip0_149_746)">
<path d="M14 24.6356C14 25.6694 14.6311 26.3006 15.6649 26.3006H37.8091C38.8429 26.3006 39.4849 25.6694 39.4849 24.6356V24.1024C39.4849 23.0796 38.8429 22.4267 37.8091 22.4267H15.6649C14.6311 22.4267 14 23.0796 14 24.1024V24.6356ZM20.9208 38.2487H32.5642C35.0778 38.2487 35.8614 36.7796 36.1769 35.2017L37.6894 27.7913H15.8064L17.308 35.2017C17.6236 36.7796 18.4071 38.2487 20.9208 38.2487ZM21.6281 36.3769C21.2146 36.4423 20.9099 36.2247 20.8446 35.8546L19.9088 30.3812C19.8435 30.0112 20.0829 29.7174 20.4964 29.6412C20.9099 29.5868 21.2254 29.7936 21.2907 30.1635L22.2157 35.6371C22.2701 36.007 22.0525 36.3008 21.6281 36.3769ZM25.0776 36.3661C24.6641 36.3879 24.3593 36.1376 24.3376 35.7568L23.9785 30.3486C23.9568 29.9677 24.2288 29.6956 24.6314 29.663C25.0558 29.6303 25.3387 29.8915 25.3714 30.2723L25.7305 35.6805C25.7522 36.0614 25.4802 36.3444 25.0776 36.3661ZM28.4292 36.3661C28.0157 36.3444 27.7436 36.0614 27.7653 35.6805L28.1244 30.2723C28.1571 29.8915 28.44 29.6303 28.8644 29.663C29.267 29.6956 29.5391 29.9677 29.5173 30.3486L29.1582 35.7568C29.1365 36.1376 28.8318 36.3879 28.4292 36.3661ZM31.8569 36.3769C31.4324 36.3008 31.2149 36.007 31.2693 35.6371L32.1942 30.1635C32.2595 29.7936 32.575 29.5868 32.9885 29.6412C33.402 29.7174 33.6414 30.0329 33.5761 30.4029L32.6403 35.8546C32.575 36.2247 32.2595 36.4423 31.8569 36.3769ZM17.5039 22.8946H19.6802L23.5106 16.2459C23.8044 15.7235 23.565 15.2665 23.1624 15.0489C22.7706 14.8421 22.2483 14.8748 21.9545 15.3644L17.5039 22.8946ZM33.8047 22.8946H35.981L31.5304 15.3644C31.2475 14.8856 30.7251 14.853 30.3225 15.0489C29.9308 15.2665 29.6805 15.7235 29.9743 16.2459L33.8047 22.8946Z" fill="#262626"/>
</g>
<defs>
<clipPath id="clip0_149_746">
<rect width="26" height="26" fill="white" transform="translate(14 14)"/>
</clipPath>
</defs>
</svg>
