<svg width="54" height="54" viewBox="0 0 54 54" fill="none" xmlns="http://www.w3.org/2000/svg">
<rect width="54" height="54" rx="6" fill="#D3EE91"/>
<path d="M31.1135 33.56L23.2956 20.2534C22.9681 19.6945 22.5095 19.5296 21.9853 19.5798C21.5558 19.63 20.9881 19.8521 20.464 20.1531C18.6442 21.1921 17.9527 22.79 16.1838 23.7932C15.4122 24.2303 14.7425 24.3951 14.4222 24.5743C14.0437 24.7892 13.8763 25.1475 14.102 25.5416L17.0282 30.5361C17.3558 31.0951 17.8216 31.2527 18.3385 31.2025C18.7679 31.1524 19.343 30.9302 19.8598 30.6221C21.6869 29.5831 22.3711 27.9923 24.14 26.9819C24.7296 26.6523 25.2683 26.4732 25.6104 26.3442L30.1599 34.1046C30.3128 34.3697 30.6403 34.4557 30.9096 34.3053C31.1644 34.1548 31.259 33.818 31.1135 33.56ZM27.503 25.7065L28.1363 26.7813L28.391 26.3442C28.7332 26.4732 29.2646 26.6523 29.8614 26.9819C31.623 27.9923 32.3146 29.5831 34.1343 30.6221C34.6585 30.9302 35.2263 31.1524 35.6557 31.2025C36.1798 31.2527 36.6384 31.0951 36.9659 30.5361L39.8995 25.5416C40.1252 25.1475 39.9504 24.7892 39.5792 24.5743C39.2589 24.3951 38.582 24.2303 37.8104 23.7932C36.0415 22.79 35.3573 21.1921 33.5375 20.1531C33.0134 19.8521 32.4383 19.63 32.0161 19.5798C31.492 19.5296 31.0334 19.6945 30.7058 20.2534L27.503 25.7065ZM26.4985 29.5759L25.8579 28.4939L22.888 33.56C22.7351 33.818 22.837 34.1548 23.0918 34.3053C23.3611 34.4557 23.6887 34.3697 23.8343 34.1046L26.4985 29.5759Z" fill="#262626"/>
</svg>
