<svg width="54" height="54" viewBox="0 0 54 54" fill="none" xmlns="http://www.w3.org/2000/svg">
<rect width="54" height="54" rx="6" fill="#D3EE91"/>
<path d="M26.5997 32.4122H27.5004C32.5043 32.4122 35.8768 29.0336 35.8768 23.7901V21.7549C35.8768 19.3688 32.3141 17.7446 27.05 17.7446C21.786 17.7446 18.2232 19.3688 18.2232 21.7549V23.7901C18.2232 28.8531 21.5858 32.4122 26.5997 32.4122ZM27.05 24.2012C22.8668 24.2012 19.7845 23.1384 19.7845 21.7549C19.7845 20.3814 22.8668 19.3086 27.05 19.3086C31.2433 19.3086 34.3257 20.3814 34.3257 21.7549C34.3257 23.1384 31.2433 24.2012 27.05 24.2012ZM34.796 27.9809H35.5866C37.8183 27.9809 39.1593 26.8079 39.1593 24.8629C39.1593 22.9279 37.8083 21.7449 35.5866 21.7449H34.9461V23.2989H35.5866C36.8576 23.2989 37.5982 23.8804 37.5982 24.8629C37.5982 25.8354 36.8576 26.4269 35.5866 26.4269H34.796V27.9809ZM27 37.2146C34.6059 37.2146 40 35.049 40 31.9009C40 30.6777 39.1694 29.605 37.7082 28.7428C37.1078 28.9935 36.4473 29.1339 35.6967 29.1539C34.1055 31.931 31.1932 33.5852 27.5004 33.5852H26.5997C22.4865 33.5852 19.2741 31.3996 17.843 27.9809C15.4111 28.9233 14 30.2868 14 31.9009C14 35.049 19.4042 37.2146 27 37.2146Z" fill="#1C1C1E"/>
</svg>
