<svg width="54" height="54" viewBox="0 0 54 54" fill="none" xmlns="http://www.w3.org/2000/svg">
<rect width="54" height="54" rx="6" fill="#D3EE91"/>
<path d="M16.5499 28.89H17.5402V26.7028H16.5499V28.89ZM21.697 39.1405C23.0572 39.1405 23.6883 37.8892 22.9484 36.5616L18.8786 29.3688C18.5304 28.7703 18.0081 28.4983 17.3552 28.4983C16.3323 28.4983 15.7773 29.26 15.8644 30.2719C16.082 31.5669 16.9525 33.6344 18.0081 35.332C19.673 38.1503 20.6414 39.1405 21.697 39.1405ZM37.5625 28.89V26.7028H36.5723V28.89H37.5625ZM32.4154 39.1405C33.4709 39.1405 34.4394 38.1503 36.1044 35.332C37.149 33.6344 38.0304 31.5669 38.2481 30.2719C38.3351 29.26 37.7802 28.4983 36.7572 28.4983C36.1044 28.4983 35.582 28.7703 35.2338 29.3688L31.1641 36.5616C30.4132 37.8892 31.0553 39.1405 32.4154 39.1405ZM16.1799 26.5178C16.1799 27.0292 16.5064 27.3448 17.0178 27.3448C17.5293 27.3448 17.834 27.0292 17.834 26.5178C17.8884 20.6526 21.3814 16.931 27.0508 16.931C32.731 16.931 36.2132 20.6526 36.2675 26.5178C36.2675 27.0292 36.5831 27.3448 37.0946 27.3448C37.606 27.3448 37.9216 27.0292 37.9216 26.5178C37.9216 19.8473 33.8191 15.2661 27.0508 15.2661C20.2823 15.2661 16.1799 19.8473 16.1799 26.5178Z" fill="#262626"/>
<path d="M24.9517 36.9859C25.6481 36.5833 25.8331 35.6801 25.387 34.9075L21.7198 28.4329C21.2737 27.6603 20.4031 27.3773 19.7176 27.78C19.2932 28.0085 19.1953 28.4111 19.4129 28.792L23.9179 36.7138C24.1464 37.1056 24.5382 37.2144 24.9517 36.9859ZM29.1629 36.9859C29.5764 37.2144 29.9682 37.1056 30.1858 36.7138L34.6908 28.792C34.9193 28.4111 34.8214 28.0085 34.397 27.78C33.7006 27.3773 32.8409 27.6603 32.3839 28.4329L28.7167 34.9075C28.2706 35.6801 28.4665 36.5833 29.1629 36.9859ZM20.6969 20.7178C22.4815 19.7493 24.5708 19.2705 27.0519 19.2705C29.5438 19.2705 31.6331 19.7493 33.4068 20.7178C31.9813 18.8896 29.9464 17.9756 27.0519 17.9756C24.1682 17.9756 22.1333 18.8896 20.6969 20.7178Z" fill="#262626"/>
</svg>
