<svg width="54" height="54" viewBox="0 0 54 54" fill="none" xmlns="http://www.w3.org/2000/svg">
<rect width="54" height="54" rx="6" fill="#D3EE91"/>
<path d="M18.6445 30.3771C18.6445 31.302 19.2648 31.9114 20.2441 31.9114H26.1311V36.9931C26.1311 38.6581 26.8276 40.0401 27.0996 40.0401C27.3608 40.0401 28.0572 38.6581 28.0572 36.9931V31.9114H33.9442C34.9235 31.9114 35.5438 31.302 35.5438 30.3771C35.5438 28.0811 33.7048 25.6545 30.6471 24.5445L30.288 19.5498C31.8767 18.6466 33.1824 17.6237 33.7483 16.8947C34.0312 16.5247 34.1728 16.1547 34.1728 15.8283C34.1728 15.1645 33.6613 14.6748 32.8996 14.6748H21.2997C20.5271 14.6748 20.0265 15.1645 20.0265 15.8283C20.0265 16.1547 20.1571 16.5247 20.44 16.8947C21.0059 17.6237 22.3117 18.6466 23.9004 19.5498L23.5413 24.5445C20.4835 25.6545 18.6445 28.0811 18.6445 30.3771Z" fill="#1C1C1E"/>
</svg>
