<svg width="54" height="54" viewBox="0 0 54 54" fill="none" xmlns="http://www.w3.org/2000/svg">
<rect width="54" height="54" rx="6" fill="#D3EE91"/>
<path d="M26.6161 37.8272C26.7902 37.8272 27.0622 37.7618 27.3343 37.6204C33.5259 34.3776 35.5173 32.7563 35.5173 28.8498V20.6449C35.5173 19.5241 35.0385 19.165 34.1245 18.7842C32.8513 18.2619 28.7816 16.7819 27.5193 16.3467C27.2255 16.2487 26.9208 16.1943 26.6161 16.1943C26.3114 16.1943 26.0067 16.2596 25.7238 16.3467C24.4506 16.7602 20.3809 18.2727 19.1077 18.7842C18.2045 19.1542 17.7148 19.5241 17.7148 20.6449V28.8498C17.7148 32.7563 19.815 34.1927 25.8979 37.6204C26.1808 37.7728 26.442 37.8272 26.6161 37.8272ZM21.7084 27.3698C21.7084 27.2392 21.7737 27.076 21.8934 26.9346L28.0416 19.2194C28.5095 18.6318 29.293 19.0236 29.0101 19.7526L26.9861 25.1935H30.7837C31.0775 25.1935 31.2952 25.4002 31.2952 25.6941C31.2952 25.8247 31.2299 25.9879 31.1102 26.1293L24.9621 33.8445C24.4941 34.4321 23.7215 34.0403 23.9936 33.3221L26.0285 27.8704H22.2199C21.9369 27.8704 21.7084 27.6636 21.7084 27.3698Z" fill="#262626"/>
</svg>
