<svg width="54" height="54" viewBox="0 0 54 54" fill="none" xmlns="http://www.w3.org/2000/svg">
<rect width="54" height="54" rx="6" fill="#D3EE91"/>
<path d="M21.7251 39.7408H32.2783C34.3353 39.7408 35.3588 38.6759 35.3588 36.5254V20.9909C35.3588 18.8405 34.3353 17.7755 32.3777 17.7755H32.1492C32.1492 17.8165 32.1492 17.8677 32.1492 17.9086V19.117C32.1492 20.4072 31.3045 21.3186 30.0723 21.3186H23.9311C22.6989 21.3186 21.8542 20.4072 21.8542 19.117V17.9086C21.8542 17.8677 21.8542 17.8165 21.8542 17.7755H21.6257C19.6681 17.7755 18.6445 18.8405 18.6445 20.9909V36.5254C18.6445 38.6759 19.6681 39.7408 21.7251 39.7408ZM23.9311 20.1308H30.0723C30.6486 20.1308 30.9964 19.7519 30.9964 19.117V18.0417C30.9964 17.4069 30.6486 17.028 30.0723 17.028H29.158C29.0885 15.8708 28.1544 14.9287 27.0017 14.9287C25.849 14.9287 24.9149 15.8708 24.8453 17.028H23.9311C23.3548 17.028 23.0069 17.4069 23.0069 18.0417V19.117C23.0069 19.7519 23.3548 20.1308 23.9311 20.1308ZM27.0017 18.0008C26.5247 18.0008 26.1372 17.5912 26.1372 17.1099C26.1372 16.6081 26.5247 16.2087 27.0017 16.2087C27.4787 16.2087 27.8662 16.6081 27.8662 17.1099C27.8662 17.5912 27.4787 18.0008 27.0017 18.0008Z" fill="#262626"/>
</svg>
