<svg width="48" height="48" viewBox="0 0 48 48" fill="none" xmlns="http://www.w3.org/2000/svg">
<rect width="48" height="48" rx="6" fill="#234338"/>
<path d="M24.9008 17.6998C24.9008 17.2027 24.4978 16.7998 24.0008 16.7998C23.5037 16.7998 23.1008 17.2027 23.1008 17.6998V23.0998H17.7008C17.2037 23.0998 16.8008 23.5027 16.8008 23.9998C16.8008 24.4969 17.2037 24.8998 17.7008 24.8998L23.1008 24.8998V30.2998C23.1008 30.7969 23.5037 31.1998 24.0008 31.1998C24.4978 31.1998 24.9008 30.7969 24.9008 30.2998V24.8998H30.3008C30.7978 24.8998 31.2008 24.4969 31.2008 23.9998C31.2008 23.5027 30.7978 23.0998 30.3008 23.0998H24.9008V17.6998Z" fill="white"/>
</svg>
