<svg width="33" height="32" viewBox="0 0 33 32" fill="none" xmlns="http://www.w3.org/2000/svg">
<rect x="0.332031" width="32" height="32" rx="6" fill="#EEF8D3"/>
<path d="M12.6124 11.2197C12.3195 10.9268 11.8446 10.9268 11.5517 11.2197C11.2588 11.5126 11.2588 11.9874 11.5517 12.2803L15.2714 16L11.5517 19.7197C11.2588 20.0126 11.2588 20.4874 11.5517 20.7803C11.8446 21.0732 12.3195 21.0732 12.6124 20.7803L16.332 17.0607L20.0517 20.7803C20.3446 21.0732 20.8195 21.0732 21.1124 20.7803C21.4053 20.4874 21.4053 20.0126 21.1124 19.7197L17.3927 16L21.1124 12.2803C21.4053 11.9874 21.4053 11.5126 21.1124 11.2197C20.8195 10.9268 20.3446 10.9268 20.0517 11.2197L16.332 14.9393L12.6124 11.2197Z" fill="#262626"/>
</svg>
